<?xml version="1.0" standalone="no"?>
<!DOCTYPE svg PUBLIC "-//W3C//DTD SVG 20010904//EN"
 "http://www.w3.org/TR/2001/REC-SVG-20010904/DTD/svg10.dtd">
<svg version="1.0" xmlns="http://www.w3.org/2000/svg"
 width="474.000000pt" height="474.000000pt" viewBox="0 0 474.000000 474.000000"
 preserveAspectRatio="xMidYMid meet">
<metadata>
Created by potrace 1.11, written by Peter Selinger 2001-2013
</metadata>
<g transform="translate(0.000000,474.000000) scale(0.100000,-0.100000)"
fill="#000000" stroke="none">
<path d="M955 3429 c-110 -15 -211 -46 -321 -98 -130 -62 -208 -115 -307 -210
-232 -220 -339 -472 -324 -764 8 -163 42 -276 124 -418 106 -180 260 -321 458
-419 157 -78 245 -101 412 -107 408 -17 814 172 1121 519 40 47 72 92 72 104
0 22 -38 64 -59 64 -8 0 -57 -41 -109 -92 -133 -127 -246 -208 -387 -278 -188
-93 -344 -130 -548 -130 -234 1 -429 83 -603 255 -79 78 -98 104 -137 185 -75
158 -95 309 -61 463 50 223 198 396 428 502 111 52 186 68 311 68 177 0 323
-48 502 -165 209 -138 443 -384 633 -668 172 -257 421 -509 655 -663 276 -182
544 -270 820 -270 177 0 254 16 465 95 64 24 197 110 280 180 156 133 282 329
332 518 31 116 33 368 4 475 -61 226 -193 418 -389 566 -207 156 -445 230
-696 215 -197 -11 -344 -51 -536 -146 -150 -74 -268 -162 -411 -305 -134 -134
-170 -184 -155 -214 12 -21 41 -41 61 -41 6 0 62 49 124 109 289 277 592 401
950 389 115 -4 143 -9 228 -38 267 -90 469 -296 529 -540 20 -81 17 -271 -4
-350 -71 -260 -288 -451 -574 -506 -192 -36 -415 10 -609 128 -217 131 -460
376 -664 668 -333 478 -787 808 -1240 900 -118 24 -279 32 -375 19z"/>
</g>
</svg>
